<svg xmlns="http://www.w3.org/2000/svg" width="62" height="57" viewBox="0 0 62 57" fill="none"><path d="M0 55.2789C0 52.2554 0 49.2152 0 46.1916C0.0650166 45.7907 0.113779 45.3731 0.178796 44.9722C1.04027 38.6746 3.901 33.563 8.826 29.7042C9.71998 29.0026 10.6952 28.418 11.638 27.7832C11.638 27.7498 11.638 27.6997 11.6055 27.683C11.5079 27.566 11.4104 27.4658 11.3129 27.3656C8.38714 24.3922 6.77798 20.784 6.64795 16.5577C6.48541 11.0619 8.56594 6.53497 12.8245 3.24417C18.1721 -0.86516 24.8526 -1.0155 30.509 2.6428C30.8991 2.89337 31.1592 2.85996 31.5331 2.6261C36.8319 -0.698114 42.2445 -0.898569 47.6572 2.20848C55.9143 6.95258 57.946 18.5289 51.8833 26.0125C51.3956 26.6139 50.8592 27.1818 50.3229 27.7999C50.5667 27.9502 50.7942 28.0839 51.0055 28.2342C57.0683 31.976 60.7905 37.4217 61.717 44.6047C62.1559 47.9957 61.9446 51.4703 61.9771 54.9114C61.9771 55.7968 61.4407 56.4817 60.6117 56.7823C60.1729 56.9494 59.669 56.9828 59.1814 56.9828C40.4241 56.9995 21.683 56.9828 2.92575 56.9995C1.57665 57.0162 0.552641 56.6153 0 55.2789ZM39.8552 52.389C39.8552 50.7854 39.9039 49.2319 39.8389 47.6783C39.7902 46.5424 39.6926 45.3898 39.4651 44.2873C38.116 37.8561 34.3938 33.4628 28.5423 30.9237C28.2985 30.8234 27.9409 30.79 27.6971 30.8735C23.9911 32.2767 20.2852 32.2767 16.5792 30.8735C16.3679 30.79 16.0916 30.79 15.8966 30.8568C13.7185 31.6587 11.7843 32.8781 10.1101 34.4984C6.30661 38.1734 4.43738 42.7171 4.43738 48.0793C4.43738 49.4991 4.43738 50.9357 4.43738 52.389C16.2704 52.389 28.0222 52.389 39.8552 52.389ZM11.0853 16.09C11.2316 22.8888 16.693 27.5827 22.5445 27.3489C28.8349 27.0983 33.6461 21.5691 33.191 15.1712C32.7684 9.25781 27.8596 4.41349 21.7806 4.63065C15.5227 4.84781 11.0041 10.1432 11.0853 16.09ZM34.345 6.20088C36.5068 9.09077 37.6446 12.3649 37.6446 16.0065C37.6446 19.6314 36.5068 22.9222 34.3613 25.8121C39.075 28.5683 44.5851 27.6329 48.2098 23.4567C51.802 19.3307 51.8182 12.8159 48.3398 8.67315C44.5689 4.14621 38.5548 3.59496 34.345 6.20088ZM44.3088 52.389C48.7787 52.389 53.1511 52.389 57.6697 52.389C57.5722 49.9168 57.7347 47.4445 57.3446 45.0557C56.2556 38.3071 52.5334 33.5797 46.3406 30.9571C46.0155 30.8234 45.5441 30.8067 45.2028 30.9404C43.0085 31.7589 40.7492 32.0429 38.4248 31.8424C38.2785 31.8257 38.1322 31.8424 37.8884 31.8424C38.1647 32.1598 38.3435 32.377 38.5386 32.5774C40.5379 34.8492 42.0332 37.4217 43.0247 40.3116C43.9187 42.9008 44.2763 45.5736 44.2926 48.3131C44.3251 49.6495 44.3088 51.0026 44.3088 52.389Z" fill="url(#paint0_linear_118_644)"></path><defs><linearGradient id="paint0_linear_118_644" x1="2" y1="57" x2="50.5" y2="5" gradientUnits="userSpaceOnUse"><stop stop-color="#0241FE"></stop><stop offset="1" stop-color="#4E95ED"></stop><stop offset="1" stop-color="#007CFB" stop-opacity="0"></stop></linearGradient></defs></svg>