<svg xmlns="http://www.w3.org/2000/svg" width="56" height="56" viewBox="0 0 56 56" fill="none"><path d="M0.993164 8.05958C0.993164 6.78485 0.993164 5.51012 0.993164 4.23539C4.2468 4.23539 7.48698 4.23539 10.7944 4.23539C10.7944 2.76877 10.7944 1.37068 10.7944 0C22.5451 0 34.2421 0 45.9928 0C45.9928 1.4118 45.9928 2.80989 45.9928 4.26281C49.354 4.26281 52.6479 4.26281 55.9419 4.26281C56.1436 6.57925 55.794 10.5816 55.2966 12.6239C54.1403 17.435 51.6799 21.4511 48.0767 24.7133C45.697 26.8653 43.1156 28.7842 40.6552 30.8265C39.8351 31.4982 38.9881 32.1835 38.3427 33.0196C36.1781 35.7747 33.7043 38.1734 30.8405 40.1471C30.7061 40.2431 30.5582 40.4076 30.5448 40.5446C30.5179 41.6686 30.5313 42.7925 30.5313 43.9713C31.0019 43.9713 31.4052 43.9576 31.8086 43.9713C36.205 44.0947 39.862 47.0965 40.9644 51.4278C41.3543 52.9355 41.2333 54.4707 41.2602 55.9922C32.669 55.9922 24.0778 55.9922 15.4866 55.9922C15.4866 55.1012 15.4732 54.2103 15.5135 53.3193C15.7152 48.6179 19.2915 44.6567 23.8761 44.0673C24.6425 43.9713 25.4357 43.9576 26.229 43.9028C26.229 42.8474 26.2155 41.8331 26.2424 40.8188C26.2559 40.4624 26.1349 40.2568 25.8525 40.0649C23.8896 38.7216 22.0746 37.1865 20.4746 35.4046C19.6276 34.4725 18.9285 33.376 18.0008 32.5399C16.132 30.8539 14.1556 29.2777 12.2061 27.6877C10.2163 26.0566 8.25334 24.3706 6.59963 22.3694C3.99135 19.258 2.23008 15.7491 1.50407 11.733C1.28895 10.5131 1.16795 9.27948 0.993164 8.05958ZM15.0698 4.35875C15.0698 4.55065 15.0564 4.70142 15.0698 4.83849C15.2043 7.2783 15.2984 9.7181 15.5001 12.1442C15.7555 15.3105 16.3605 18.4219 17.3151 21.4511C19.2646 27.578 22.7468 32.5536 27.9634 36.2407C28.1785 36.3915 28.3398 36.5697 28.649 36.3367C31.3111 34.4725 33.5967 32.2109 35.479 29.5244C37.9797 25.9743 39.4855 21.9857 40.3863 17.7503C41.314 13.4189 41.556 9.01906 41.6501 4.60548C41.6501 4.52323 41.6232 4.44099 41.5963 4.34505C32.7766 4.35875 23.9568 4.35875 15.0698 4.35875ZM43.5324 22.8766C48.0633 19.2169 51.0883 14.68 51.5589 8.62156C49.6498 8.62156 47.7809 8.62156 45.8583 8.62156C45.5894 13.4738 44.9844 18.2437 43.5324 22.8766ZM13.201 22.7944C11.749 18.1752 11.1574 13.4463 10.902 8.63527C9.04658 8.63527 7.23153 8.63527 5.40305 8.63527C5.86017 14.6114 8.76424 19.1346 13.201 22.7944ZM36.4604 51.5923C36.4201 51.4826 36.4067 51.4141 36.3798 51.3593C35.358 49.4266 33.758 48.3986 31.6203 48.3575C29.4557 48.3027 27.2911 48.3301 25.1265 48.3575C23.8493 48.3712 22.7065 48.7824 21.725 49.6322C21.1065 50.1668 20.5822 50.7836 20.2864 51.606C25.7046 51.5923 31.0691 51.5923 36.4604 51.5923Z" fill="url(#paint0_linear_118_666)"></path><path d="M21.4428 15.2967C22.8814 15.0911 24.3065 14.8718 25.7451 14.6799C26.0947 14.6388 26.2963 14.488 26.4577 14.159C27.0761 12.8432 27.7349 11.5548 28.4206 10.1841C28.5416 10.3897 28.6223 10.5268 28.703 10.6775C29.2811 11.8289 29.8592 12.9803 30.4104 14.1453C30.5718 14.5017 30.8003 14.6525 31.1633 14.6936C32.5885 14.8855 34.0136 15.1048 35.4388 15.3104C35.4791 15.3652 35.5194 15.4201 35.5598 15.4749C35.385 15.612 35.1833 15.7216 35.022 15.8861C34.1077 16.7633 33.1935 17.6406 32.3196 18.5452C32.1717 18.696 32.0641 19.0249 32.1045 19.2443C32.3061 20.5601 32.5482 21.8622 32.7767 23.1781C32.8036 23.3152 32.7902 23.4659 32.8036 23.6853C32.3868 23.4659 32.0238 23.2878 31.6608 23.0959C30.7869 22.6435 29.8995 22.2049 29.0525 21.7115C28.6357 21.4648 28.3131 21.4648 27.8828 21.6978C26.8207 22.3009 25.7317 22.8491 24.6426 23.4111C24.4813 23.4934 24.32 23.5619 24.078 23.6853C24.1048 23.4248 24.1317 23.2329 24.1586 23.041C24.3737 21.7526 24.6157 20.4642 24.8174 19.162C24.8443 18.9701 24.7367 18.696 24.6023 18.5589C23.6746 17.6269 22.72 16.7085 21.7789 15.7902C21.6579 15.6668 21.4831 15.5983 21.3218 15.516C21.3352 15.4338 21.389 15.3652 21.4428 15.2967Z" fill="url(#paint1_linear_118_666)"></path><defs><linearGradient id="paint0_linear_118_666" x1="13.5" y1="52" x2="55.5" y2="5.5" gradientUnits="userSpaceOnUse"><stop stop-color="#0242FD"></stop><stop offset="1" stop-color="#4D94ED"></stop><stop offset="1" stop-color="#007CFB" stop-opacity="0"></stop></linearGradient><linearGradient id="paint1_linear_118_666" x1="24.5591" y1="22.7226" x2="34.589" y2="10.8023" gradientUnits="userSpaceOnUse"><stop stop-color="#0242FD"></stop><stop offset="1" stop-color="#4D94ED"></stop><stop offset="1" stop-color="#007CFB" stop-opacity="0"></stop></linearGradient></defs></svg>