<svg xmlns="http://www.w3.org/2000/svg" width="58" height="58" viewBox="0 0 58 58" fill="none"><path d="M0 10.6344C0.253923 9.48026 0.592487 8.35424 1.34015 7.39713C2.6803 5.69402 4.42954 4.76506 6.60199 4.69468C7.53304 4.66653 8.4641 4.69468 9.45157 4.69468C9.45157 3.18863 9.45157 1.73888 9.45157 0.232825C10.961 0.232825 12.4281 0.232825 13.9658 0.232825C13.9658 1.69665 13.9658 3.16048 13.9658 4.65245C23.897 4.65245 33.7717 4.65245 43.7029 4.65245C43.7029 3.18863 43.7029 1.7248 43.7029 0.21875C45.2265 0.21875 46.6795 0.21875 48.203 0.21875C48.203 1.6685 48.203 3.13233 48.203 4.6806C49.1764 4.6806 50.0933 4.66653 50.9962 4.6806C53.2815 4.7369 55.1154 5.7081 56.4555 7.55195C57.2173 8.6076 57.6687 9.80399 57.6687 11.113C57.6969 17.3343 57.6828 23.5555 57.6828 29.7627C57.6828 29.7908 57.6687 29.8331 57.6405 29.9175C57.5276 29.8049 57.4289 29.7205 57.316 29.6219C56.0746 28.5241 54.8332 27.3981 53.5777 26.3143C53.3097 26.0891 53.1686 25.892 53.1686 25.526C53.1968 24.1467 53.1827 22.7532 53.1827 21.3316C36.974 21.3316 20.7794 21.3316 4.51418 21.3316C4.51418 21.5146 4.51418 21.7117 4.51418 21.9228C4.51418 31.4799 4.51418 41.0229 4.51418 50.58C4.51418 52.3394 5.38881 53.2121 7.13805 53.2121C13.2181 53.2121 19.3122 53.2121 25.3923 53.198C25.8014 53.198 26.013 53.3387 26.2669 53.6484C27.3249 54.887 28.4253 56.0834 29.4974 57.2939C29.6243 57.4346 29.7372 57.5613 29.8641 57.7021C21.9079 57.7021 13.9375 57.7021 5.98129 57.7021C5.89665 57.6739 5.81201 57.6176 5.72737 57.6035C3.86527 57.308 2.39816 56.3649 1.28372 54.8729C0.564273 53.958 0.239816 52.8883 0 51.7764C0 38.053 0 24.3437 0 10.6344ZM13.9799 13.6325C12.4281 13.6325 10.961 13.6325 9.45157 13.6325C9.45157 12.1405 9.45157 10.6907 9.45157 9.18468C8.60516 9.18468 7.80107 9.18468 6.99698 9.18468C5.43113 9.18468 4.51418 10.0855 4.51418 11.6479C4.51418 13.1961 4.51418 14.7585 4.51418 16.3068C4.51418 16.4616 4.52829 16.6305 4.5424 16.7712C20.7794 16.7712 36.974 16.7712 53.1827 16.7712C53.1827 14.9415 53.1968 13.168 53.1827 11.3945C53.1686 10.3248 52.4774 9.39581 51.4476 9.28321C50.4037 9.15653 49.3316 9.25506 48.2171 9.25506C48.2171 10.733 48.2171 12.1968 48.2171 13.6465C46.6936 13.6465 45.2406 13.6465 43.717 13.6465C43.717 12.1405 43.717 10.6767 43.717 9.21283C33.7858 9.21283 23.9252 9.21283 14.0081 9.21283C13.9799 10.6767 13.9799 12.1405 13.9799 13.6325Z" fill="url(#paint0_linear_118_650)"></path><path d="M41.3471 57.7301C39.88 57.3782 38.3423 57.1952 36.9457 56.6463C32.3187 54.8165 29.1729 51.4806 27.8751 46.681C26.2246 40.5864 27.8468 35.28 32.5726 31.0856C36.0147 28.0454 40.1339 26.863 44.7045 27.5809C50.1779 28.4395 54.142 31.4516 56.3567 36.4905C58.5997 41.5998 58.0637 46.5965 54.9037 51.2132C52.6043 54.5772 49.3598 56.6181 45.3534 57.4345C44.775 57.5612 44.1684 57.6315 43.576 57.7301C42.8424 57.7301 42.0947 57.7301 41.3471 57.7301ZM42.4756 53.226C48.3723 53.226 53.1827 48.3982 53.1686 42.5288C53.1545 36.6735 48.3582 31.8879 42.4897 31.8738C36.6072 31.8597 31.7685 36.6594 31.7685 42.5429C31.7685 48.4263 36.5931 53.2401 42.4756 53.226Z" fill="url(#paint1_linear_118_650)"></path><path d="M8.57715 30.4943C8.57715 29.0024 8.57715 27.5667 8.57715 26.0747C10.0584 26.0747 11.5255 26.0747 13.0349 26.0747C13.0349 27.5245 13.0349 28.9883 13.0349 30.4943C11.5678 30.4943 10.0866 30.4943 8.57715 30.4943Z" fill="url(#paint2_linear_118_650)"></path><path d="M22.035 30.5085C20.5396 30.5085 19.0866 30.5085 17.5913 30.5085C17.5913 29.0306 17.5913 27.5808 17.5913 26.0889C19.0443 26.0889 20.5255 26.0889 22.035 26.0889C22.035 27.5245 22.035 28.9884 22.035 30.5085Z" fill="url(#paint3_linear_118_650)"></path><path d="M26.6196 30.4947C26.6196 28.9887 26.6196 27.5389 26.6196 26.061C28.1008 26.061 29.5538 26.061 31.0492 26.061C31.0492 27.5249 31.0492 28.9887 31.0492 30.4947C29.5962 30.4947 28.1291 30.4947 26.6196 30.4947Z" fill="url(#paint4_linear_118_650)"></path><path d="M8.60498 35.0552C10.1003 35.0552 11.5533 35.0552 13.0345 35.0552C13.0345 36.5331 13.0345 37.9828 13.0345 39.4748C11.5815 39.4748 10.1144 39.4748 8.60498 39.4748C8.60498 38.0251 8.60498 36.5612 8.60498 35.0552Z" fill="url(#paint5_linear_118_650)"></path><path d="M17.6196 35.0552C19.115 35.0552 20.568 35.0552 22.0492 35.0552C22.0492 36.5331 22.0492 37.9828 22.0492 39.4748C20.5962 39.4748 19.1291 39.4748 17.6196 39.4748C17.6196 38.0251 17.6196 36.5612 17.6196 35.0552Z" fill="url(#paint6_linear_118_650)"></path><path d="M13.0487 44.0493C13.0487 45.5413 13.0487 46.991 13.0487 48.4689C11.5675 48.4689 10.1145 48.4689 8.61914 48.4689C8.61914 47.0192 8.61914 45.5413 8.61914 44.0493C10.058 44.0493 11.5251 44.0493 13.0487 44.0493Z" fill="url(#paint7_linear_118_650)"></path><path d="M17.6055 48.4689C17.6055 46.977 17.6055 45.5272 17.6055 44.0493C19.0867 44.0493 20.5397 44.0493 22.035 44.0493C22.035 45.4991 22.035 46.9629 22.035 48.4689C20.582 48.4689 19.1149 48.4689 17.6055 48.4689Z" fill="url(#paint8_linear_118_650)"></path><path d="M44.6057 40.2913C45.9035 40.2913 47.1308 40.2913 48.4004 40.2913C48.4004 41.7973 48.4004 43.2611 48.4004 44.7672C45.6496 44.7672 42.9128 44.7672 40.1338 44.7672C40.1338 41.5299 40.1338 38.3207 40.1338 35.0693C41.6009 35.0693 43.068 35.0693 44.6057 35.0693C44.6057 36.8006 44.6057 38.5178 44.6057 40.2913Z" fill="url(#paint9_linear_118_650)"></path><defs><linearGradient id="paint0_linear_118_650" x1="1.99867" y1="57.7021" x2="54.4726" y2="7.50574" gradientUnits="userSpaceOnUse"><stop stop-color="#0140FE"></stop><stop offset="1" stop-color="#4E95ED"></stop><stop offset="1" stop-color="#007CFB" stop-opacity="0"></stop></linearGradient><linearGradient id="paint1_linear_118_650" x1="28.304" y1="57.7301" x2="56.0124" y2="31.2097" gradientUnits="userSpaceOnUse"><stop stop-color="#0140FE"></stop><stop offset="1" stop-color="#4E95ED"></stop><stop offset="1" stop-color="#007CFB" stop-opacity="0"></stop></linearGradient><linearGradient id="paint2_linear_118_650" x1="8.7316" y1="30.4943" x2="12.7669" y2="26.6146" gradientUnits="userSpaceOnUse"><stop stop-color="#0140FE"></stop><stop offset="1" stop-color="#4E95ED"></stop><stop offset="1" stop-color="#007CFB" stop-opacity="0"></stop></linearGradient><linearGradient id="paint3_linear_118_650" x1="17.7453" y1="30.5085" x2="21.7801" y2="26.6415" gradientUnits="userSpaceOnUse"><stop stop-color="#0140FE"></stop><stop offset="1" stop-color="#4E95ED"></stop><stop offset="1" stop-color="#007CFB" stop-opacity="0"></stop></linearGradient><linearGradient id="paint4_linear_118_650" x1="26.7731" y1="30.4947" x2="30.8196" y2="26.6411" gradientUnits="userSpaceOnUse"><stop stop-color="#0140FE"></stop><stop offset="1" stop-color="#4E95ED"></stop><stop offset="1" stop-color="#007CFB" stop-opacity="0"></stop></linearGradient><linearGradient id="paint5_linear_118_650" x1="8.75845" y1="39.4748" x2="12.7927" y2="35.6206" gradientUnits="userSpaceOnUse"><stop stop-color="#0140FE"></stop><stop offset="1" stop-color="#4E95ED"></stop><stop offset="1" stop-color="#007CFB" stop-opacity="0"></stop></linearGradient><linearGradient id="paint6_linear_118_650" x1="17.7731" y1="39.4748" x2="21.8073" y2="35.6206" gradientUnits="userSpaceOnUse"><stop stop-color="#0140FE"></stop><stop offset="1" stop-color="#4E95ED"></stop><stop offset="1" stop-color="#007CFB" stop-opacity="0"></stop></linearGradient><linearGradient id="paint7_linear_118_650" x1="8.77261" y1="48.4689" x2="12.8069" y2="44.6148" gradientUnits="userSpaceOnUse"><stop stop-color="#0140FE"></stop><stop offset="1" stop-color="#4E95ED"></stop><stop offset="1" stop-color="#007CFB" stop-opacity="0"></stop></linearGradient><linearGradient id="paint8_linear_118_650" x1="17.7589" y1="48.4689" x2="21.7932" y2="44.6148" gradientUnits="userSpaceOnUse"><stop stop-color="#0140FE"></stop><stop offset="1" stop-color="#4E95ED"></stop><stop offset="1" stop-color="#007CFB" stop-opacity="0"></stop></linearGradient><linearGradient id="paint9_linear_118_650" x1="40.4202" y1="44.7672" x2="49.0941" y2="37.7192" gradientUnits="userSpaceOnUse"><stop stop-color="#0140FE"></stop><stop offset="1" stop-color="#4E95ED"></stop><stop offset="1" stop-color="#007CFB" stop-opacity="0"></stop></linearGradient></defs></svg>