<svg xmlns="http://www.w3.org/2000/svg" width="159" height="44" viewBox="0 0 159 44" fill="none"><path d="M33.6422 10.2798L31.8594 9.24485L30.4601 8.43987L29.2524 11.3148L17.6358 38.8759C17.4441 38.8376 17.2907 38.7992 17.1949 38.7417L11.5591 35.4835L27.4313 10.2415L29.0799 7.61572L27.6613 6.81073L25.6102 9.20652L5.92332 32.2444L3.8722 31.0561C3.48882 30.8452 3.08626 30.1361 3.08626 29.6953V27.9703L24.0767 8.3057L26.4345 6.10158L24.8818 5.20077L20.3195 2.57499C19.6677 2.21083 18.8435 2 17.9808 2C17.1374 2 16.2939 2.21083 15.6613 2.57499L2.33866 10.2798C0.996805 11.0465 0 12.7714 0 14.3047V29.6953C0 31.2286 0.996805 32.9727 2.33866 33.7393L15.6613 41.425C16.3131 41.7892 17.1374 42 18 42C18.8626 42 19.6869 41.7892 20.3387 41.425L33.6613 33.7393C34.984 32.9727 36 31.2286 36 29.6953V14.3047C35.9808 12.7714 34.984 11.0465 33.6422 10.2798ZM3.08626 14.3047C3.08626 13.8639 3.48882 13.1548 3.8722 12.9439L17.1949 5.25827C17.3291 5.1816 17.6166 5.08577 17.9808 5.08577C18.345 5.08577 18.6326 5.16243 18.7668 5.25827L22.0639 7.15573L3.08626 20.3613V14.3047ZM32.8946 29.6953C32.8946 30.1361 32.492 30.8452 32.1086 31.0561L25.1693 35.0618L31.0543 12.3498L32.1086 12.9439C32.492 13.1739 32.8946 13.8639 32.8946 14.3047V29.6953Z" fill="#007CFB"></path><path d="M63.6758 26.3281H69.3887C68.2656 22.998 67.3232 20.2295 66.5615 18.0225C65.9268 19.8682 64.9648 22.6367 63.6758 26.3281ZM56.1758 35L64.7451 13.6719H68.5244L77.167 35H72.9629L70.8975 29.7998H62.2842L60.2627 35H56.1758ZM79.6719 35V25.6982C79.6719 24.6338 79.6475 23.6279 79.5986 22.6807C79.5498 21.7236 79.501 21.0352 79.4521 20.6152L79.3789 19.9707H83.2314V21.9775C83.749 21.1963 84.4375 20.6055 85.2969 20.2051C86.166 19.7949 87.0059 19.5898 87.8164 19.5898C88.6855 19.5898 89.4473 19.707 90.1016 19.9414C90.7559 20.166 91.332 20.5371 91.8301 21.0547C92.3379 21.5625 92.7236 22.2656 92.9873 23.1641C93.251 24.0625 93.3828 25.1514 93.3828 26.4307V35H89.75V26.1816C89.75 24.8535 89.54 23.916 89.1201 23.3691C88.71 22.8125 88.0264 22.5342 87.0693 22.5342C86.7178 22.5342 86.332 22.6123 85.9121 22.7686C85.4922 22.9248 85.082 23.1445 84.6816 23.4277C84.291 23.7012 83.9639 24.0674 83.7002 24.5264C83.4365 24.9756 83.3047 25.4688 83.3047 26.0059V35H79.6719ZM106.098 34.9854H104.633C104.047 34.9854 103.539 34.9707 103.109 34.9414C102.68 34.9121 102.235 34.8486 101.776 34.751C101.327 34.6533 100.941 34.5264 100.619 34.3701C100.307 34.2041 100.004 33.9844 99.7109 33.7109C99.418 33.4375 99.1836 33.1104 99.0078 32.7295C98.832 32.3389 98.6904 31.875 98.583 31.3379C98.4854 30.8008 98.4365 30.1855 98.4365 29.4922V22.4023H95.3018V19.9707H98.583V16.4551L102.055 15.3857V19.9707H105.98V22.4023H102.055V29.7119C102.055 30.1807 102.089 30.5615 102.157 30.8545C102.235 31.1377 102.348 31.377 102.494 31.5723C102.641 31.7578 102.885 31.8945 103.227 31.9824C103.578 32.0703 103.959 32.1289 104.369 32.1582C104.779 32.1875 105.355 32.2021 106.098 32.2021V34.9854ZM112.528 25.6836H119.999C119.823 24.6191 119.428 23.8037 118.812 23.2373C118.197 22.6709 117.445 22.3877 116.557 22.3877C115.512 22.3877 114.638 22.6807 113.935 23.2666C113.231 23.8525 112.763 24.6582 112.528 25.6836ZM116.82 35.3369C114.291 35.3369 112.294 34.6143 110.829 33.1689C109.374 31.7236 108.646 29.834 108.646 27.5C108.646 26.4453 108.822 25.4443 109.174 24.4971C109.525 23.5498 110.019 22.71 110.653 21.9775C111.298 21.2451 112.108 20.6641 113.085 20.2344C114.071 19.8047 115.16 19.5898 116.352 19.5898C117.543 19.5898 118.583 19.7949 119.472 20.2051C120.36 20.6152 121.063 21.1914 121.581 21.9336C122.099 22.666 122.479 23.4912 122.724 24.4092C122.978 25.3271 123.104 26.3428 123.104 27.4561C123.104 27.7393 123.08 27.9541 123.031 28.1006H112.484C112.543 29.5654 112.987 30.6494 113.817 31.3525C114.657 32.0557 115.771 32.4072 117.157 32.4072C118.778 32.4072 120.36 31.8701 121.903 30.7959L122.885 33.4326C121.938 34.0869 120.98 34.5703 120.014 34.8828C119.057 35.1855 117.992 35.3369 116.82 35.3369ZM134.164 35.3369C132.943 35.3369 131.825 35.1221 130.81 34.6924C129.804 34.2627 128.979 33.6816 128.334 32.9492C127.689 32.2168 127.191 31.3818 126.84 30.4443C126.488 29.4971 126.312 28.5059 126.312 27.4707C126.312 25.9863 126.615 24.6533 127.221 23.4717C127.836 22.2803 128.739 21.3379 129.931 20.6445C131.132 19.9414 132.528 19.5898 134.12 19.5898C136.483 19.5898 138.3 20.2637 139.569 21.6113L138.266 23.9551C137.182 22.998 135.927 22.5195 134.501 22.5195C133.075 22.5195 131.981 22.9688 131.22 23.8672C130.458 24.7656 130.077 25.9717 130.077 27.4854C130.077 28.96 130.482 30.1514 131.293 31.0596C132.104 31.958 133.212 32.4072 134.618 32.4072C134.813 32.4072 135.009 32.3975 135.204 32.3779C135.399 32.3584 135.575 32.334 135.731 32.3047C135.888 32.2754 136.049 32.2363 136.215 32.1875C136.391 32.1289 136.537 32.0801 136.654 32.041C136.771 31.9922 136.903 31.9287 137.05 31.8506C137.196 31.7725 137.309 31.7139 137.387 31.6748C137.475 31.626 137.582 31.5576 137.709 31.4697C137.836 31.3818 137.919 31.3232 137.958 31.2939C138.007 31.2646 138.085 31.2109 138.192 31.1328C138.31 31.0449 138.373 30.9961 138.383 30.9863L139.481 33.6523C138.642 34.2383 137.802 34.668 136.962 34.9414C136.122 35.2051 135.189 35.3369 134.164 35.3369ZM142.543 35V13.6572H146.176V21.9189C146.537 21.2256 147.172 20.6641 148.08 20.2344C148.988 19.8047 149.853 19.5898 150.673 19.5898C151.366 19.5898 151.996 19.6729 152.562 19.8389C153.139 20.0049 153.622 20.2246 154.013 20.498C154.403 20.7715 154.745 21.1084 155.038 21.5088C155.331 21.8994 155.561 22.2998 155.727 22.71C155.893 23.1104 156.024 23.5547 156.122 24.043C156.229 24.5312 156.298 24.9756 156.327 25.376C156.366 25.7764 156.386 26.1963 156.386 26.6357V35H152.753V26.5186C152.753 25.1025 152.533 24.0869 152.094 23.4717C151.654 22.8467 150.995 22.5342 150.116 22.5342C149.12 22.5342 148.212 22.8809 147.392 23.5742C146.581 24.2578 146.176 25.0488 146.176 25.9473V35H142.543Z" fill="white"></path></svg>