<svg xmlns="http://www.w3.org/2000/svg" width="185" height="54" viewBox="0 0 185 54" fill="none"><path d="M43.4228 11.7429L41.1448 10.4491L39.3567 9.4429L37.8136 13.0366L22.9702 47.4879C22.7252 47.44 22.5293 47.3921 22.4068 47.3202L15.2055 43.2474L35.4867 11.6949L37.5932 8.41271L35.7806 7.40648L33.1597 10.4012L8.00424 39.1985L5.38336 37.7131C4.89348 37.4496 4.3791 36.5632 4.3791 36.0121V33.8559L31.2002 9.27519L34.213 6.52004L32.2289 5.39402L26.3993 2.1118C25.5665 1.6566 24.5133 1.39307 23.4111 1.39307C22.3333 1.39307 21.2556 1.6566 20.4473 2.1118L3.42383 11.7429C1.70924 12.7012 0.435547 14.8574 0.435547 16.774V36.0121C0.435547 37.9288 1.70924 40.1089 3.42383 41.0672L20.4473 50.6743C21.2801 51.1295 22.3333 51.3931 23.4355 51.3931C24.5378 51.3931 25.591 51.1295 26.4238 50.6743L43.4473 41.0672C45.1374 40.1089 46.4355 37.9288 46.4355 36.0121V16.774C46.4111 14.8574 45.1374 12.7012 43.4228 11.7429ZM4.3791 16.774C4.3791 16.223 4.89348 15.3365 5.38336 15.073L22.4068 5.4659C22.5783 5.37007 22.9457 5.25028 23.4111 5.25028C23.8764 5.25028 24.2439 5.34611 24.4153 5.4659L28.6283 7.83772L4.3791 24.3447V16.774ZM42.4675 36.0121C42.4675 36.5632 41.9531 37.4496 41.4632 37.7131L32.5964 42.7203L40.1161 14.3303L41.4632 15.073C41.9531 15.3605 42.4675 16.223 42.4675 16.774V36.0121Z" fill="#007CFB"></path><path d="M70.6465 31.9868H77.502C76.1543 27.9907 75.0234 24.6685 74.1094 22.02C73.3477 24.2349 72.1934 27.5571 70.6465 31.9868ZM61.6465 42.3931L71.9297 16.7993H76.4648L86.8359 42.3931H81.791L79.3125 36.1528H68.9766L66.5508 42.3931H61.6465ZM89.8418 42.3931V31.231C89.8418 29.9536 89.8125 28.7466 89.7539 27.6099C89.6953 26.4614 89.6367 25.6353 89.5781 25.1313L89.4902 24.3579H94.1133V26.7661C94.7344 25.8286 95.5605 25.1196 96.5918 24.6392C97.6348 24.147 98.6426 23.9009 99.6152 23.9009C100.658 23.9009 101.572 24.0415 102.357 24.3228C103.143 24.5923 103.834 25.0376 104.432 25.6587C105.041 26.2681 105.504 27.1118 105.82 28.1899C106.137 29.2681 106.295 30.5747 106.295 32.1099V42.3931H101.936V31.811C101.936 30.2173 101.684 29.0923 101.18 28.436C100.688 27.7681 99.8672 27.4341 98.7188 27.4341C98.2969 27.4341 97.834 27.5278 97.3301 27.7153C96.8262 27.9028 96.334 28.1665 95.8535 28.5063C95.3848 28.8345 94.9922 29.2739 94.6758 29.8247C94.3594 30.3638 94.2012 30.9556 94.2012 31.6001V42.3931H89.8418ZM121.553 42.3755H119.795C119.092 42.3755 118.482 42.3579 117.967 42.3228C117.451 42.2876 116.918 42.2114 116.367 42.0942C115.828 41.9771 115.365 41.8247 114.979 41.6372C114.604 41.438 114.24 41.1743 113.889 40.8462C113.537 40.5181 113.256 40.1255 113.045 39.6685C112.834 39.1997 112.664 38.6431 112.535 37.9985C112.418 37.354 112.359 36.6157 112.359 35.7837V27.2759H108.598V24.3579H112.535V20.1392L116.701 18.856V24.3579H121.412V27.2759H116.701V36.0474C116.701 36.6099 116.742 37.0669 116.824 37.4185C116.918 37.7583 117.053 38.0454 117.229 38.2798C117.404 38.5024 117.697 38.6665 118.107 38.772C118.529 38.8774 118.986 38.9478 119.479 38.9829C119.971 39.0181 120.662 39.0356 121.553 39.0356V42.3755ZM129.27 31.2134H138.234C138.023 29.936 137.549 28.9575 136.811 28.2778C136.072 27.5981 135.17 27.2583 134.104 27.2583C132.85 27.2583 131.801 27.6099 130.957 28.313C130.113 29.0161 129.551 29.9829 129.27 31.2134ZM134.42 42.7974C131.385 42.7974 128.988 41.9302 127.23 40.1958C125.484 38.4614 124.611 36.1938 124.611 33.3931C124.611 32.1274 124.822 30.9263 125.244 29.7896C125.666 28.6528 126.258 27.645 127.02 26.7661C127.793 25.8872 128.766 25.1899 129.938 24.6743C131.121 24.1587 132.428 23.9009 133.857 23.9009C135.287 23.9009 136.535 24.147 137.602 24.6392C138.668 25.1313 139.512 25.8228 140.133 26.7134C140.754 27.5923 141.211 28.5825 141.504 29.6841C141.809 30.7856 141.961 32.0044 141.961 33.3403C141.961 33.6802 141.932 33.938 141.873 34.1138H129.217C129.287 35.8716 129.82 37.1724 130.816 38.0161C131.824 38.8599 133.16 39.2817 134.824 39.2817C136.77 39.2817 138.668 38.6372 140.52 37.3481L141.697 40.5122C140.561 41.2974 139.412 41.8774 138.252 42.2524C137.104 42.6157 135.826 42.7974 134.42 42.7974ZM155.232 42.7974C153.768 42.7974 152.426 42.5396 151.207 42.0239C150 41.5083 149.01 40.811 148.236 39.9321C147.463 39.0532 146.865 38.0513 146.443 36.9263C146.021 35.7896 145.811 34.6001 145.811 33.3579C145.811 31.5767 146.174 29.9771 146.9 28.5591C147.639 27.1294 148.723 25.9985 150.152 25.1665C151.594 24.3228 153.27 23.9009 155.18 23.9009C158.016 23.9009 160.195 24.7095 161.719 26.3267L160.154 29.1392C158.854 27.9907 157.348 27.4165 155.637 27.4165C153.926 27.4165 152.613 27.9556 151.699 29.0337C150.785 30.1118 150.328 31.5591 150.328 33.3755C150.328 35.145 150.814 36.5747 151.787 37.6646C152.76 38.7427 154.09 39.2817 155.777 39.2817C156.012 39.2817 156.246 39.27 156.48 39.2466C156.715 39.2231 156.926 39.1938 157.113 39.1587C157.301 39.1235 157.494 39.0767 157.693 39.0181C157.904 38.9478 158.08 38.8892 158.221 38.8423C158.361 38.7837 158.52 38.7075 158.695 38.6138C158.871 38.52 159.006 38.4497 159.1 38.4028C159.205 38.3442 159.334 38.2622 159.486 38.1567C159.639 38.0513 159.738 37.981 159.785 37.9458C159.844 37.9106 159.938 37.8462 160.066 37.7524C160.207 37.647 160.283 37.5884 160.295 37.5767L161.613 40.7759C160.605 41.479 159.598 41.9946 158.59 42.3228C157.582 42.6392 156.463 42.7974 155.232 42.7974ZM165.287 42.3931V16.7817H169.646V26.6958C170.08 25.8638 170.842 25.1899 171.932 24.6743C173.021 24.1587 174.059 23.9009 175.043 23.9009C175.875 23.9009 176.631 24.0005 177.311 24.1997C178.002 24.3989 178.582 24.6626 179.051 24.9907C179.52 25.3188 179.93 25.7231 180.281 26.2036C180.633 26.6724 180.908 27.1528 181.107 27.645C181.307 28.1255 181.465 28.6587 181.582 29.2446C181.711 29.8306 181.793 30.3638 181.828 30.8442C181.875 31.3247 181.898 31.8286 181.898 32.356V42.3931H177.539V32.2153C177.539 30.5161 177.275 29.2974 176.748 28.5591C176.221 27.8091 175.43 27.4341 174.375 27.4341C173.18 27.4341 172.09 27.8501 171.105 28.6821C170.133 29.5024 169.646 30.4517 169.646 31.5298V42.3931H165.287Z" fill="#333333"></path></svg>