<svg xmlns="http://www.w3.org/2000/svg" width="58" height="56" viewBox="0 0 58 56" fill="none"><path d="M20.4608 55.7945C14.2551 55.7945 8.04942 55.7945 1.82873 55.7945C0.479668 55.3586 0.0149896 54.4287 0.0149896 53.0774C0.0599585 47.6723 0.0299792 42.2527 0.0299792 36.8476C0.0299792 35.1331 0.869398 34.3049 2.62318 34.3049C7.86955 34.3049 13.1309 34.3049 18.3773 34.3194C18.797 34.3194 19.0968 34.2032 19.4116 33.9126C24.1932 29.263 28.93 24.5699 33.7866 19.993C34.9558 18.8888 35.5704 17.8135 35.3605 16.2298C35.2256 15.1837 35.3305 14.0939 35.3305 13.0042C30.9086 13.0042 26.5466 13.0042 22.1397 13.0042C22.1397 13.2512 22.1397 13.4401 22.1397 13.6435C22.1397 15.4452 22.1397 17.2324 22.1397 19.034C22.1397 20.6904 21.2853 21.5186 19.5914 21.5186C13.9104 21.5186 8.2293 21.5186 2.54823 21.5186C0.869398 21.5186 0.0149896 20.6614 0.0149896 19.034C0.0149896 13.5854 0.0299792 8.13669 0 2.68801C0.0299792 1.32221 0.524637 0.435894 1.84372 0C8.04942 0 14.2551 0 20.4758 0C21.7799 0.494014 22.2596 1.42392 22.1996 2.77519C22.1247 4.48971 22.1846 6.21876 22.1846 7.94781C22.1846 8.13669 22.1846 8.34011 22.1846 8.529C26.6216 8.529 30.9685 8.529 35.3755 8.529C35.3755 6.582 35.4354 4.66407 35.3605 2.77519C35.3155 1.43845 35.7802 0.494014 37.0843 0C43.29 0 49.4957 0 55.7164 0C56.6308 0.276066 57.2304 0.857259 57.5152 1.74358C57.5152 7.77345 57.5152 13.8033 57.5152 19.8332C56.9905 21.1263 56.0012 21.5332 54.6072 21.5186C49.4358 21.4605 44.2493 21.4896 39.0779 21.5186C38.7931 21.5186 38.4484 21.6494 38.2535 21.8383C33.0071 26.9092 27.7758 31.9946 22.5444 37.0946C22.3495 37.2835 22.2146 37.6177 22.2146 37.8937C22.1846 39.3613 22.1996 40.8288 22.1996 42.3108C22.1996 42.4852 22.1996 42.6595 22.1996 42.8484C26.6216 42.8484 30.9685 42.8484 35.3905 42.8484C35.3905 42.6159 35.3905 42.427 35.3905 42.2382C35.3905 40.3638 35.3755 38.504 35.3905 36.6297C35.4055 35.2203 36.2899 34.3339 37.7289 34.3339C43.5448 34.3194 49.3608 34.3339 55.1618 34.3339C56.256 34.3339 57.0055 34.828 57.3952 35.816C57.4252 35.8741 57.4702 35.9322 57.5152 35.9903C57.5152 42.0202 57.5152 48.0501 57.5152 54.08C57.2304 54.9663 56.6308 55.5475 55.7164 55.8235C49.5107 55.8235 43.305 55.8235 37.0843 55.8235C35.7502 55.315 35.2856 54.356 35.3605 52.9902C35.4354 51.2902 35.3755 49.5757 35.3755 47.8757C35.3755 47.6868 35.3755 47.4834 35.3755 47.28C30.9386 47.28 26.5916 47.28 22.1846 47.28C22.1846 47.527 22.1846 47.7304 22.1846 47.9193C22.1846 49.7937 22.1846 51.6535 22.1846 53.5278C22.1846 54.2688 21.9298 54.8791 21.3302 55.3295C21.0604 55.5039 20.7606 55.6346 20.4608 55.7945ZM17.6428 17.1016C17.6428 12.8298 17.6428 8.60165 17.6428 4.388C13.2658 4.388 8.91882 4.388 4.55684 4.388C4.55684 8.64524 4.55684 12.8589 4.55684 17.1016C8.93381 17.1016 13.2808 17.1016 17.6428 17.1016ZM52.9733 17.1016C52.9733 12.8153 52.9733 8.60165 52.9733 4.388C48.5963 4.388 44.2493 4.388 39.8874 4.388C39.8874 8.63071 39.8874 12.8589 39.8874 17.1016C44.2643 17.1016 48.5963 17.1016 52.9733 17.1016ZM4.57183 38.6929C4.57183 42.9792 4.57183 47.1928 4.57183 51.4065C8.9488 51.4065 13.2958 51.4065 17.6578 51.4065C17.6578 47.1638 17.6578 42.9356 17.6578 38.6929C13.2808 38.6929 8.93381 38.6929 4.57183 38.6929ZM52.9883 38.6929C48.5963 38.6929 44.2493 38.6929 39.8724 38.6929C39.8724 42.9501 39.8724 47.1638 39.8724 51.3919C44.2643 51.3919 48.6113 51.3919 52.9883 51.3919C52.9883 47.1492 52.9883 42.9501 52.9883 38.6929Z" fill="url(#paint0_linear_118_640)"></path><defs><linearGradient id="paint0_linear_118_640" x1="0.499999" y1="55.9119" x2="56.5" y2="2.91187" gradientUnits="userSpaceOnUse"><stop stop-color="#003FFF"></stop><stop offset="1" stop-color="#4E95ED"></stop><stop offset="1" stop-color="#007CFB" stop-opacity="0"></stop></linearGradient></defs></svg>